<svg id="Layer_1" xmlns="http://www.w3.org/2000/svg" viewBox="0 0 500 142"><style>.st0{fill:#1a1a1a}.st1{fill:#0071bc}</style><path class="st0" d="M62.2 20.5h74.5V43H90.1V67H125v21.7H90V135H62.3V20.5z"/><path class="st0" d="M164.3 135h-28V44h28v15.2A34 34 0 0 1 192.8 43v29.6h-7.7c-13.2 0-20.8 4.5-20.8 20.2V135z"/><path class="st0" d="M222.2 136.3c-26.8 0-46-18-46-46.8s18.9-46.8 46-46.8c26.5 0 45.3 17.6 45.3 45.3 0 2.7-.2 5.4-.5 8.2h-63.1c1 11.9 8.3 17.4 17.3 17.4 7.8 0 12.2-3.9 14.5-8.8h29.7c-4.4 17.8-20.6 31.5-43.2 31.5zM204 80.7H239c0-10-7.9-15.6-17.2-15.6-9.1 0-16.1 5.5-17.7 15.6z"/><path class="st0" d="M255.1 19.6c0-8.5 6.7-15.2 16.6-15.2 9.8 0 16.5 6.7 16.5 15.2 0 8.3-6.7 15-16.5 15-10 0-16.6-6.7-16.6-15zm2.6 24.4h27.9v91h-27.9V44z"/><path class="st0" d="M293.9 67.2h-11V44h11V22h27.9V44H340v23.2h-18.2v36.5c0 5.4 2.3 7.7 8.5 7.7h10V135H326c-18.9 0-32.1-8-32.1-31.6V67.2z"/><path class="st1" d="M374 42.7c13.5 0 23.1 6.2 28 14.2V44H430v91H402v-12.9c-5 8-14.7 14.2-28.2 14.2-22.2 0-40-18.3-40-47 0-28.6 17.8-46.6 40.2-46.6zM382 67c-10.4 0-19.9 7.8-19.9 22.4 0 14.5 9.5 22.6 20 22.6s19.8-8 19.8-22.5S392.7 67 382.1 67z"/><path class="st1" d="M456.1 136.3c-24.2 0-40.6-13.5-41.9-31.1h27.6c.7 6.3 6.4 10.6 14 10.6 7.2 0 11-3.3 11-7.4 0-14.6-49.6-4-49.6-37.5 0-15.5 13.2-28.2 37-28.2 23.5 0 36.5 13 38.3 31h-25.8c-.8-6.2-5.5-10.3-13.3-10.3-6.5 0-10.1 2.6-10.1 7 0 14.5 49.2 4.3 49.7 38.2 0 15.8-14 27.7-36.9 27.7z"/><circle cx="29" cy="111" r="24" fill="#ff1d25"/></svg>